<svg xmlns="http://www.w3.org/2000/svg" width="467" height="195" viewBox="0 0 467 195" role="img" aria-label="GitHub statistics">
<title>Tianlang (Jackie) Chen: 54 stars, 586 commits, 19 pull requests, rank B-</title>
<text x="25" y="34" font-family="-apple-system,BlinkMacSystemFont,Segoe UI,Helvetica,Arial,sans-serif" font-size="16" font-weight="600" fill="#fabd2f">Tianlang (Jackie) Chen's GitHub Stats</text>
<g transform="translate(25,58) scale(0.875)" fill="#fabd2f"><path d="M8 .25a.75.75 0 0 1 .673.418l1.882 3.815 4.21.612a.75.75 0 0 1 .416 1.279l-3.046 2.97.719 4.192a.751.751 0 0 1-1.088.791L8 12.347l-3.766 1.98a.75.75 0 0 1-1.088-.79l.72-4.194L.818 6.374a.75.75 0 0 1 .416-1.28l4.21-.611L7.327.668A.75.75 0 0 1 8 .25Z"/></g>
<text x="50" y="70" font-family="-apple-system,BlinkMacSystemFont,Segoe UI,Helvetica,Arial,sans-serif" font-size="14" font-weight="600" fill="#fabd2f">Total Stars Earned:</text>
<text x="280" y="70" text-anchor="end" font-family="-apple-system,BlinkMacSystemFont,Segoe UI,Helvetica,Arial,sans-serif" font-size="14" font-weight="600" fill="#ebdbb2">54</text>
<g transform="translate(25,83) scale(0.875)" fill="#fabd2f"><path d="M1.643 3.143.427 1.927A.25.25 0 0 0 0 2.104V5.75c0 .138.112.25.25.25h3.646a.25.25 0 0 0.177-.427L2.715 4.215a6.5 6.5 0 1 1-1.18 4.458.75.75 0 1 0-1.493.154 8.001 8.001 0 1 01.6-5.684ZM7.75 4a.75.75 0 0 1 .75.75v3.19l1.72 1.72a.75.75 0 1 1-1.06 1.06l-1.94-1.94A.75.75 0 0 1 7 8.25v-3.5A.75.75 0 0 1 7.75 4Z"/></g>
<text x="50" y="95" font-family="-apple-system,BlinkMacSystemFont,Segoe UI,Helvetica,Arial,sans-serif" font-size="14" font-weight="600" fill="#fabd2f">Total Commits:</text>
<text x="280" y="95" text-anchor="end" font-family="-apple-system,BlinkMacSystemFont,Segoe UI,Helvetica,Arial,sans-serif" font-size="14" font-weight="600" fill="#ebdbb2">586</text>
<g transform="translate(25,108) scale(0.875)" fill="#fabd2f"><path d="M1.5 3.25a2.25 2.25 0 1 1 3 2.122v5.256a2.251 2.251 0 1 1-1.5 0V5.372A2.25 2.25 0 0 1 1.5 3.25Zm5.677-.177L9.573.677A.25.25 0 0 1 10 .854V2.5h1A2.5 2.5 0 0 1 13.5 5v5.628a2.251 2.251 0 1 1-1.5 0V5a1 1 0 0 0-1-1h-1v1.646a.25.25 0 0 1-.427.177L7.177 3.427a.25.25 0 0 1 0-.354ZM3.75 2.5a.75.75 0 1 0 0 1.5.75.75 0 0 0 0-1.5Zm0 9.5a.75.75 0 1 0 0 1.5.75.75 0 0 0 0-1.5Zm8.25.75a.75.75 0 1 0 1.5 0 .75.75 0 0 0-1.5 0Z"/></g>
<text x="50" y="120" font-family="-apple-system,BlinkMacSystemFont,Segoe UI,Helvetica,Arial,sans-serif" font-size="14" font-weight="600" fill="#fabd2f">Total PRs:</text>
<text x="280" y="120" text-anchor="end" font-family="-apple-system,BlinkMacSystemFont,Segoe UI,Helvetica,Arial,sans-serif" font-size="14" font-weight="600" fill="#ebdbb2">19</text>
<g transform="translate(25,133) scale(0.875)" fill="#fabd2f"><path d="M8 9.5a1.5 1.5 0 1 0 0-3 1.5 1.5 0 0 0 0 3Z M8 0a8 8 0 1 1 0 16A8 8 0 0 1 8 0ZM1.5 8a6.5 6.5 0 1 0 13 0 6.5 6.5 0 0 0-13 0Z"/></g>
<text x="50" y="145" font-family="-apple-system,BlinkMacSystemFont,Segoe UI,Helvetica,Arial,sans-serif" font-size="14" font-weight="600" fill="#fabd2f">Total Issues:</text>
<text x="280" y="145" text-anchor="end" font-family="-apple-system,BlinkMacSystemFont,Segoe UI,Helvetica,Arial,sans-serif" font-size="14" font-weight="600" fill="#ebdbb2">19</text>
<g transform="translate(25,158) scale(0.875)" fill="#fabd2f"><path d="M2 2.5A2.5 2.5 0 0 1 4.5 0h8.75a.75.75 0 0 1 .75.75v12.5a.75.75 0 0 1-.75.75h-2.5a.75.75 0 0 1 0-1.5h1.75v-2h-8a1 1 0 0 0-.714 1.7.75.75 0 1 1-1.072 1.05A2.495 2.495 0 0 1 2 11.5Zm10.5-1h-8a1 1 0 0 0-1 1v6.708A2.486 2.486 0 0 1 4.5 9h8ZM5 12.25a.25.25 0 0 1 .25-.25h3.5a.25.25 0 0 1 .25.25v3.25a.25.25 0 0 1-.4.2l-1.45-1.087a.249.249 0 0 0-.3 0L5.4 15.7a.25.25 0 0 1-.4-.2Z"/></g>
<text x="50" y="170" font-family="-apple-system,BlinkMacSystemFont,Segoe UI,Helvetica,Arial,sans-serif" font-size="14" font-weight="600" fill="#fabd2f">Contributed to:</text>
<text x="280" y="170" text-anchor="end" font-family="-apple-system,BlinkMacSystemFont,Segoe UI,Helvetica,Arial,sans-serif" font-size="14" font-weight="600" fill="#ebdbb2">3</text>
<circle cx="370" cy="100" r="40" fill="none" stroke="#7c6f64" stroke-width="6"/>
<circle cx="370" cy="100" r="40" fill="none" stroke="#fabd2f" stroke-width="6" stroke-linecap="round" stroke-dasharray="85.44 251.33" transform="rotate(-90 370 100)"/>
<text x="370" y="108" text-anchor="middle" font-family="-apple-system,BlinkMacSystemFont,Segoe UI,Helvetica,Arial,sans-serif" font-size="24" font-weight="700" fill="#fabd2f">B-</text>
</svg>
